<?xml version="1.0"?><svg xmlns="http://www.w3.org/2000/svg"  viewBox="0 0 50 50" width="50px" height="50px">    <path d="M 7 4 C 5.35 4 4 5.35 4 7 L 4 43 C 4 44.65 5.35 46 7 46 L 42.775391 46 C 42.175391 45.39 35.789219 38.789219 35.699219 38.699219 C 35.169219 38.899219 34.6 39 34 39 C 31.24 39 29 36.76 29 34 C 29 31.24 31.24 29 34 29 C 36.76 29 39 31.24 39 34 C 39 34.6 38.899219 35.169219 38.699219 35.699219 C 38.749219 35.749219 45.285 42.470547 45.875 43.060547 L 45.875 7 C 45.875 5.35 44.525 4 42.875 4 L 30.904297 4 C 30.904297 4 20.769219 14.230781 20.699219 14.300781 C 20.899219 14.830781 21 15.4 21 16 C 21 18.76 18.76 21 16 21 C 13.24 21 11 18.76 11 16 C 11 13.24 13.24 11 16 11 C 16.6 11 17.169219 11.100781 17.699219 11.300781 C 17.749219 11.250781 24.255703 4.6 24.845703 4 L 7 4 z M 34 11 C 36.76 11 39 13.24 39 16 C 39 18.76 36.76 21 34 21 C 33.4 21 32.830781 20.899219 32.300781 20.699219 L 20.699219 32.300781 C 20.899219 32.830781 21 33.4 21 34 C 21 36.76 18.76 39 16 39 C 13.24 39 11 36.76 11 34 C 11 31.24 13.24 29 16 29 C 16.6 29 17.169219 29.100781 17.699219 29.300781 L 29.300781 17.699219 C 29.100781 17.169219 29 16.6 29 16 C 29 13.24 31.24 11 34 11 z M 16 14 A 2 2 0 0 0 14 16 A 2 2 0 0 0 16 18 A 2 2 0 0 0 18 16 A 2 2 0 0 0 16 14 z M 34 14 A 2 2 0 0 0 32 16 A 2 2 0 0 0 34 18 A 2 2 0 0 0 36 16 A 2 2 0 0 0 34 14 z M 16 32 A 2 2 0 0 0 14 34 A 2 2 0 0 0 16 36 A 2 2 0 0 0 18 34 A 2 2 0 0 0 16 32 z M 34 32 A 2 2 0 0 0 32 34 A 2 2 0 0 0 34 36 A 2 2 0 0 0 36 34 A 2 2 0 0 0 34 32 z"/></svg>